<mxfile host="Electron" modified="2023-09-18T12:42:00.443Z" agent="Mozilla/5.0 (Windows NT 10.0; Win64; x64) AppleWebKit/537.36 (KHTML, like Gecko) draw.io/21.7.5 Chrome/114.0.5735.289 Electron/25.8.1 Safari/537.36" etag="gIMOndSRxkBFoWhRsWWs" version="21.7.5" type="device">
  <diagram id="xCsVWlV-KQrjOmjG070d" name="PÃ¡gina-2">
    <mxGraphModel dx="1074" dy="585" grid="1" gridSize="10" guides="1" tooltips="1" connect="1" arrows="1" fold="1" page="1" pageScale="1" pageWidth="827" pageHeight="1169" math="0" shadow="0">
      <root>
        <mxCell id="0" />
        <mxCell id="1" parent="0" />
        <mxCell id="0TjI_xLk8EIAhLMLX3-r-5" value="" style="edgeStyle=orthogonalEdgeStyle;rounded=0;orthogonalLoop=1;jettySize=auto;html=1;entryX=0;entryY=0.5;entryDx=0;entryDy=0;entryPerimeter=0;" parent="1" source="0TjI_xLk8EIAhLMLX3-r-1" target="0TjI_xLk8EIAhLMLX3-r-2" edge="1">
          <mxGeometry relative="1" as="geometry">
            <mxPoint x="290" y="130" as="targetPoint" />
          </mxGeometry>
        </mxCell>
        <mxCell id="0TjI_xLk8EIAhLMLX3-r-15" style="edgeStyle=orthogonalEdgeStyle;rounded=0;orthogonalLoop=1;jettySize=auto;html=1;exitX=0.5;exitY=1;exitDx=0;exitDy=0;exitPerimeter=0;entryX=0.5;entryY=0;entryDx=0;entryDy=0;" parent="1" source="0TjI_xLk8EIAhLMLX3-r-1" target="0TjI_xLk8EIAhLMLX3-r-19" edge="1">
          <mxGeometry relative="1" as="geometry">
            <mxPoint x="120" y="200" as="targetPoint" />
          </mxGeometry>
        </mxCell>
        <mxCell id="0TjI_xLk8EIAhLMLX3-r-1" value="&lt;div&gt;Document&lt;/div&gt;&lt;div&gt;Store&lt;/div&gt;" style="shape=cylinder3;whiteSpace=wrap;html=1;boundedLbl=1;backgroundOutline=1;size=15;" parent="1" vertex="1">
          <mxGeometry x="80" y="70" width="80" height="90" as="geometry" />
        </mxCell>
        <mxCell id="0TjI_xLk8EIAhLMLX3-r-28" style="edgeStyle=orthogonalEdgeStyle;rounded=0;orthogonalLoop=1;jettySize=auto;html=1;exitX=0.5;exitY=1;exitDx=0;exitDy=0;exitPerimeter=0;" parent="1" source="0TjI_xLk8EIAhLMLX3-r-2" edge="1">
          <mxGeometry relative="1" as="geometry">
            <mxPoint x="510" y="360" as="targetPoint" />
          </mxGeometry>
        </mxCell>
        <mxCell id="lGNnSLvST0cikLown2EK-1" style="edgeStyle=orthogonalEdgeStyle;rounded=0;orthogonalLoop=1;jettySize=auto;html=1;exitX=1;exitY=0.5;exitDx=0;exitDy=0;exitPerimeter=0;" edge="1" parent="1" source="0TjI_xLk8EIAhLMLX3-r-2">
          <mxGeometry relative="1" as="geometry">
            <mxPoint x="590" y="200" as="targetPoint" />
            <Array as="points">
              <mxPoint x="406" y="130" />
              <mxPoint x="501" y="130" />
              <mxPoint x="501" y="200" />
            </Array>
          </mxGeometry>
        </mxCell>
        <mxCell id="0TjI_xLk8EIAhLMLX3-r-2" value="&lt;div&gt;generated&lt;/div&gt;&lt;div&gt;Question-&lt;/div&gt;&lt;div&gt;Answer&lt;/div&gt;&lt;div&gt;Pairs&lt;/div&gt;" style="shape=cylinder3;whiteSpace=wrap;html=1;boundedLbl=1;backgroundOutline=1;size=15;" parent="1" vertex="1">
          <mxGeometry x="330" y="70" width="76" height="90" as="geometry" />
        </mxCell>
        <mxCell id="0TjI_xLk8EIAhLMLX3-r-6" value="&lt;div&gt;GPT 3.5-turbo / GPT-4&lt;/div&gt;" style="text;html=1;align=center;verticalAlign=middle;resizable=0;points=[];autosize=1;strokeColor=none;fillColor=none;" parent="1" vertex="1">
          <mxGeometry x="170" y="88" width="140" height="30" as="geometry" />
        </mxCell>
        <mxCell id="0TjI_xLk8EIAhLMLX3-r-25" style="edgeStyle=orthogonalEdgeStyle;rounded=0;orthogonalLoop=1;jettySize=auto;html=1;exitX=1;exitY=0.5;exitDx=0;exitDy=0;exitPerimeter=0;entryX=0;entryY=0.5;entryDx=0;entryDy=0;" parent="1" source="0TjI_xLk8EIAhLMLX3-r-8" target="0TjI_xLk8EIAhLMLX3-r-24" edge="1">
          <mxGeometry relative="1" as="geometry" />
        </mxCell>
        <mxCell id="0TjI_xLk8EIAhLMLX3-r-8" value="&lt;div&gt;Vectorstore&lt;/div&gt;&lt;div&gt;Pinecone, etc.&lt;/div&gt;" style="shape=cylinder3;whiteSpace=wrap;html=1;boundedLbl=1;backgroundOutline=1;size=15;" parent="1" vertex="1">
          <mxGeometry x="80" y="320" width="80" height="90" as="geometry" />
        </mxCell>
        <mxCell id="0TjI_xLk8EIAhLMLX3-r-18" style="edgeStyle=orthogonalEdgeStyle;rounded=0;orthogonalLoop=1;jettySize=auto;html=1;" parent="1" edge="1">
          <mxGeometry relative="1" as="geometry">
            <mxPoint x="120" y="317" as="targetPoint" />
            <mxPoint x="120" y="267" as="sourcePoint" />
          </mxGeometry>
        </mxCell>
        <mxCell id="0TjI_xLk8EIAhLMLX3-r-19" value="&lt;div&gt;TextSpliter (Recursive, Spacy, ...)&lt;br&gt;&lt;/div&gt;&lt;div&gt;Chunk size (200,300,...)&lt;br&gt;&lt;/div&gt;&lt;div&gt;Chunk overlap (10,20,...)&lt;br&gt;&lt;/div&gt;&lt;div&gt;Embedding model (OpenAI, ...)&lt;br&gt;&lt;/div&gt;" style="rounded=0;whiteSpace=wrap;html=1;" parent="1" vertex="1">
          <mxGeometry x="20" y="210" width="200" height="60" as="geometry" />
        </mxCell>
        <mxCell id="0TjI_xLk8EIAhLMLX3-r-53" style="edgeStyle=orthogonalEdgeStyle;rounded=0;orthogonalLoop=1;jettySize=auto;html=1;exitX=0.5;exitY=0;exitDx=0;exitDy=0;exitPerimeter=0;" parent="1" source="0TjI_xLk8EIAhLMLX3-r-23" target="0TjI_xLk8EIAhLMLX3-r-52" edge="1">
          <mxGeometry relative="1" as="geometry">
            <Array as="points">
              <mxPoint x="590" y="240" />
              <mxPoint x="589" y="240" />
            </Array>
          </mxGeometry>
        </mxCell>
        <mxCell id="0TjI_xLk8EIAhLMLX3-r-23" value="&lt;div&gt;LLM(query, vectorstore)&lt;/div&gt;&lt;div&gt;Gen. answers&lt;br&gt;&lt;/div&gt;" style="shape=cylinder3;whiteSpace=wrap;html=1;boundedLbl=1;backgroundOutline=1;size=15;" parent="1" vertex="1">
          <mxGeometry x="550" y="320" width="80" height="90" as="geometry" />
        </mxCell>
        <mxCell id="0TjI_xLk8EIAhLMLX3-r-27" style="edgeStyle=orthogonalEdgeStyle;rounded=0;orthogonalLoop=1;jettySize=auto;html=1;exitX=1;exitY=0.5;exitDx=0;exitDy=0;entryX=0;entryY=0.5;entryDx=0;entryDy=0;entryPerimeter=0;" parent="1" source="0TjI_xLk8EIAhLMLX3-r-24" target="0TjI_xLk8EIAhLMLX3-r-23" edge="1">
          <mxGeometry relative="1" as="geometry">
            <mxPoint x="540" y="365.3333333333335" as="targetPoint" />
          </mxGeometry>
        </mxCell>
        <mxCell id="0TjI_xLk8EIAhLMLX3-r-24" value="&lt;div&gt;Q-A LLM chat model&lt;/div&gt;&lt;div&gt;OpenAI (GPT3.5-turbo), LLama 2 70b, etc...&lt;/div&gt;" style="rounded=0;whiteSpace=wrap;html=1;" parent="1" vertex="1">
          <mxGeometry x="268" y="335" width="200" height="60" as="geometry" />
        </mxCell>
        <mxCell id="0TjI_xLk8EIAhLMLX3-r-29" value="&lt;div&gt;Use every generated question as query on vectorstore + LLM call&lt;/div&gt;" style="text;html=1;strokeColor=none;fillColor=none;align=center;verticalAlign=middle;whiteSpace=wrap;rounded=0;" parent="1" vertex="1">
          <mxGeometry x="370" y="200" width="80" height="30" as="geometry" />
        </mxCell>
        <mxCell id="0TjI_xLk8EIAhLMLX3-r-57" style="edgeStyle=orthogonalEdgeStyle;rounded=0;orthogonalLoop=1;jettySize=auto;html=1;exitX=0.817;exitY=0.998;exitDx=0;exitDy=0;exitPerimeter=0;entryX=0.5;entryY=0;entryDx=0;entryDy=0;" parent="1" source="0TjI_xLk8EIAhLMLX3-r-52" target="0TjI_xLk8EIAhLMLX3-r-59" edge="1">
          <mxGeometry relative="1" as="geometry">
            <mxPoint x="700" y="220" as="targetPoint" />
          </mxGeometry>
        </mxCell>
        <mxCell id="0TjI_xLk8EIAhLMLX3-r-52" value="Metrics based on chosen Textsplitting strategy, embedding model and LLM" style="shape=cube;whiteSpace=wrap;html=1;boundedLbl=1;backgroundOutline=1;darkOpacity=0.05;darkOpacity2=0.1;" parent="1" vertex="1">
          <mxGeometry x="510" y="70" width="139" height="94" as="geometry" />
        </mxCell>
        <mxCell id="0TjI_xLk8EIAhLMLX3-r-56" value="Can be ROUGE score or we can additionally ask another model to rate the answer of the LLM wrt the reference answer" style="text;html=1;strokeColor=none;fillColor=none;align=center;verticalAlign=middle;whiteSpace=wrap;rounded=0;" parent="1" vertex="1">
          <mxGeometry x="670" y="100" width="140" height="30" as="geometry" />
        </mxCell>
        <mxCell id="0TjI_xLk8EIAhLMLX3-r-59" value="Choose best splitting strategy and LLM and finetune the model using the Q/A references and the document chunks wrt vectorstore" style="rounded=0;whiteSpace=wrap;html=1;" parent="1" vertex="1">
          <mxGeometry x="630" y="220" width="170" height="80" as="geometry" />
        </mxCell>
        <mxCell id="0TjI_xLk8EIAhLMLX3-r-60" style="edgeStyle=orthogonalEdgeStyle;rounded=0;orthogonalLoop=1;jettySize=auto;html=1;exitX=0.5;exitY=1;exitDx=0;exitDy=0;" parent="1" source="0TjI_xLk8EIAhLMLX3-r-59" target="0TjI_xLk8EIAhLMLX3-r-59" edge="1">
          <mxGeometry relative="1" as="geometry" />
        </mxCell>
      </root>
    </mxGraphModel>
  </diagram>
</mxfile>
